G04 #@! TF.GenerationSoftware,KiCad,Pcbnew,(5.0.1)-3*
G04 #@! TF.CreationDate,2018-12-13T01:42:54-05:00*
G04 #@! TF.ProjectId,miniflex,6D696E69666C65782E6B696361645F70,rev?*
G04 #@! TF.SameCoordinates,Original*
G04 #@! TF.FileFunction,Copper,L2,Bot,Signal*
G04 #@! TF.FilePolarity,Positive*
%FSLAX46Y46*%
G04 Gerber Fmt 4.6, Leading zero omitted, Abs format (unit mm)*
G04 Created by KiCad (PCBNEW (5.0.1)-3) date 12/13/2018 1:42:54 AM*
%MOMM*%
%LPD*%
G01*
G04 APERTURE LIST*
G04 #@! TA.AperFunction,ComponentPad*
%ADD10R,1.600000X1.600000*%
G04 #@! TD*
G04 #@! TA.AperFunction,ComponentPad*
%ADD11O,1.600000X1.600000*%
G04 #@! TD*
G04 #@! TA.AperFunction,ComponentPad*
%ADD12R,1.700000X1.700000*%
G04 #@! TD*
G04 #@! TA.AperFunction,ComponentPad*
%ADD13O,1.700000X1.700000*%
G04 #@! TD*
G04 #@! TA.AperFunction,ComponentPad*
%ADD14O,3.000000X1.700000*%
G04 #@! TD*
G04 #@! TA.AperFunction,ComponentPad*
%ADD15O,2.000000X1.700000*%
G04 #@! TD*
G04 #@! TA.AperFunction,ComponentPad*
%ADD16O,2.200000X2.000000*%
G04 #@! TD*
G04 #@! TA.AperFunction,ComponentPad*
%ADD17O,2.500000X2.000000*%
G04 #@! TD*
G04 #@! TA.AperFunction,ComponentPad*
%ADD18O,2.400000X1.700000*%
G04 #@! TD*
G04 #@! TA.AperFunction,ComponentPad*
%ADD19C,2.000000*%
G04 #@! TD*
G04 #@! TA.AperFunction,Conductor*
%ADD20C,0.400000*%
G04 #@! TD*
G04 APERTURE END LIST*
D10*
G04 #@! TO.P,U1,1*
G04 #@! TO.N,Net-(J1-Pad7)*
X81280000Y-89535000D03*
D11*
G04 #@! TO.P,U1,5*
G04 #@! TO.N,Net-(J1-Pad6)*
X88900000Y-97155000D03*
G04 #@! TO.P,U1,2*
G04 #@! TO.N,Net-(J1-Pad3)*
X81280000Y-92075000D03*
G04 #@! TO.P,U1,6*
G04 #@! TO.N,Net-(J1-Pad7)*
X88900000Y-94615000D03*
G04 #@! TO.P,U1,3*
G04 #@! TO.N,Net-(J1-Pad2)*
X81280000Y-94615000D03*
G04 #@! TO.P,U1,7*
G04 #@! TO.N,Net-(J1-Pad6)*
X88900000Y-92075000D03*
G04 #@! TO.P,U1,4*
G04 #@! TO.N,Net-(J1-Pad1)*
X81280000Y-97155000D03*
G04 #@! TO.P,U1,8*
G04 #@! TO.N,Net-(U1-Pad8)*
X88900000Y-89535000D03*
G04 #@! TD*
D10*
G04 #@! TO.P,U3,1*
G04 #@! TO.N,Net-(J2-Pad2)*
X97790000Y-89535000D03*
D11*
G04 #@! TO.P,U3,5*
G04 #@! TO.N,Net-(U3-Pad5)*
X105410000Y-97155000D03*
G04 #@! TO.P,U3,2*
G04 #@! TO.N,Net-(J2-Pad2)*
X97790000Y-92075000D03*
G04 #@! TO.P,U3,6*
G04 #@! TO.N,Net-(U3-Pad6)*
X105410000Y-94615000D03*
G04 #@! TO.P,U3,3*
G04 #@! TO.N,Net-(U1-Pad8)*
X97790000Y-94615000D03*
G04 #@! TO.P,U3,7*
G04 #@! TO.N,Net-(U3-Pad7)*
X105410000Y-92075000D03*
G04 #@! TO.P,U3,4*
G04 #@! TO.N,Net-(J1-Pad6)*
X97790000Y-97155000D03*
G04 #@! TO.P,U3,8*
G04 #@! TO.N,Net-(J1-Pad7)*
X105410000Y-89535000D03*
G04 #@! TD*
D12*
G04 #@! TO.P,J2,1*
G04 #@! TO.N,Net-(J1-Pad6)*
X101600000Y-82550000D03*
D13*
G04 #@! TO.P,J2,2*
G04 #@! TO.N,Net-(J2-Pad2)*
X99060000Y-82550000D03*
G04 #@! TD*
D14*
G04 #@! TO.P,J1,7*
G04 #@! TO.N,Net-(J1-Pad7)*
X73025000Y-81915000D03*
G04 #@! TO.P,J1,6*
G04 #@! TO.N,Net-(J1-Pad6)*
X73025000Y-84455000D03*
D15*
G04 #@! TO.P,J1,5*
G04 #@! TO.N,Net-(J1-Pad5)*
X73025000Y-86995000D03*
D14*
G04 #@! TO.P,J1,4*
G04 #@! TO.N,Net-(J1-Pad4)*
X73025000Y-89535000D03*
D16*
G04 #@! TO.P,J1,3*
G04 #@! TO.N,Net-(J1-Pad3)*
X73025000Y-92075000D03*
D14*
G04 #@! TO.P,J1,2*
G04 #@! TO.N,Net-(J1-Pad2)*
X73025000Y-94615000D03*
D12*
G04 #@! TO.P,J1,1*
G04 #@! TO.N,Net-(J1-Pad1)*
X73025000Y-97155000D03*
G04 #@! TD*
D17*
G04 #@! TO.P,U2,2*
G04 #@! TO.N,Net-(J1-Pad4)*
X114300000Y-92710000D03*
D18*
G04 #@! TO.P,U2,3*
G04 #@! TO.N,Net-(J1-Pad5)*
X114300000Y-90170000D03*
D19*
G04 #@! TO.P,U2,4*
G04 #@! TO.N,Net-(J1-Pad6)*
X114300000Y-87630000D03*
D15*
G04 #@! TO.P,U2,1*
G04 #@! TO.N,Net-(J1-Pad7)*
X114300000Y-95250000D03*
G04 #@! TD*
D20*
G04 #@! TO.N,Net-(J1-Pad5)*
X114650000Y-90170000D02*
X114300000Y-90170000D01*
X116840000Y-87980000D02*
X114650000Y-90170000D01*
X116840000Y-81915000D02*
X116840000Y-87980000D01*
X69215000Y-86995000D02*
X68580000Y-86360000D01*
X73025000Y-86995000D02*
X69215000Y-86995000D01*
X68580000Y-86360000D02*
X68580000Y-80645000D01*
X68580000Y-80645000D02*
X70485000Y-78740000D01*
X70485000Y-78740000D02*
X113665000Y-78740000D01*
X113665000Y-78740000D02*
X116840000Y-81915000D01*
G04 #@! TO.N,Net-(J1-Pad4)*
X115950000Y-94110000D02*
X114550000Y-92710000D01*
X116402514Y-94495000D02*
X116017514Y-94110000D01*
X114550000Y-92710000D02*
X114300000Y-92710000D01*
X116017514Y-94110000D02*
X115950000Y-94110000D01*
X116402514Y-96322486D02*
X116402514Y-94495000D01*
X69989018Y-89535000D02*
X69850000Y-89674018D01*
X73025000Y-89535000D02*
X69989018Y-89535000D01*
X69850000Y-99060000D02*
X71120000Y-100330000D01*
X69850000Y-89674018D02*
X69850000Y-99060000D01*
X71120000Y-100330000D02*
X112395000Y-100330000D01*
X112395000Y-100330000D02*
X116402514Y-96322486D01*
G04 #@! TO.N,Net-(J1-Pad6)*
X88900000Y-97155000D02*
X97790000Y-97155000D01*
X93980000Y-97155000D02*
X97790000Y-97155000D01*
X88900000Y-92075000D02*
X93980000Y-97155000D01*
X101600000Y-93345000D02*
X101600000Y-82550000D01*
X97790000Y-97155000D02*
X101600000Y-93345000D01*
X101600000Y-82550000D02*
X103505000Y-82550000D01*
X108585000Y-87630000D02*
X114300000Y-87630000D01*
X103505000Y-82550000D02*
X108585000Y-87630000D01*
X77369990Y-80544990D02*
X88900000Y-92075000D01*
X76920010Y-80095010D02*
X77369990Y-80544990D01*
X69850000Y-84455000D02*
X69850000Y-81280000D01*
X73025000Y-84455000D02*
X69850000Y-84455000D01*
X69850000Y-81280000D02*
X70585010Y-80544990D01*
X70585010Y-80544990D02*
X71220010Y-80544990D01*
X71220010Y-80544990D02*
X71669990Y-80095010D01*
X71669990Y-80095010D02*
X76920010Y-80095010D01*
G04 #@! TO.N,Net-(J1-Pad7)*
X81280000Y-88335000D02*
X81280000Y-89535000D01*
X74860000Y-81915000D02*
X81280000Y-88335000D01*
X73025000Y-81915000D02*
X74860000Y-81915000D01*
X83820000Y-89535000D02*
X88900000Y-94615000D01*
X81280000Y-89535000D02*
X83820000Y-89535000D01*
X111125000Y-95250000D02*
X105410000Y-89535000D01*
X114300000Y-95250000D02*
X111125000Y-95250000D01*
X99644999Y-99110001D02*
X102870000Y-95885000D01*
X102870000Y-92075000D02*
X105410000Y-89535000D01*
X102870000Y-95250000D02*
X102870000Y-92075000D01*
X102870000Y-95250000D02*
X102870000Y-95885000D01*
X86995000Y-99060000D02*
X99594998Y-99060000D01*
X83769999Y-95834999D02*
X86995000Y-99060000D01*
X83820000Y-89535000D02*
X83820000Y-95784998D01*
X83820000Y-95784998D02*
X83769999Y-95834999D01*
G04 #@! TO.N,Net-(J1-Pad3)*
X74525000Y-92075000D02*
X81280000Y-92075000D01*
X73025000Y-92075000D02*
X74525000Y-92075000D01*
G04 #@! TO.N,Net-(J1-Pad2)*
X74925000Y-94615000D02*
X81280000Y-94615000D01*
X73025000Y-94615000D02*
X74925000Y-94615000D01*
G04 #@! TO.N,Net-(J1-Pad1)*
X73025000Y-97155000D02*
X81280000Y-97155000D01*
G04 #@! TO.N,Net-(U1-Pad8)*
X92710000Y-89535000D02*
X88900000Y-89535000D01*
X97790000Y-94615000D02*
X92710000Y-89535000D01*
G04 #@! TO.N,Net-(J2-Pad2)*
X97790000Y-92075000D02*
X97790000Y-89535000D01*
X97790000Y-83820000D02*
X99060000Y-82550000D01*
X97790000Y-89535000D02*
X97790000Y-83820000D01*
G04 #@! TD*
M02*
