M48
;DRILL file {KiCad (5.0.1)-3} date 12/13/2018 1:42:56 AM
;FORMAT={-:-/ absolute / inch / decimal}
FMAT,2
INCH,TZ
T1C0.0315
T2C0.0394
T3C0.0402
%
G90
G05
M72
T1
X3.2Y-3.525
X3.2Y-3.625
X3.2Y-3.725
X3.2Y-3.825
X3.5Y-3.525
X3.5Y-3.625
X3.5Y-3.725
X3.5Y-3.825
X3.85Y-3.525
X3.85Y-3.625
X3.85Y-3.725
X3.85Y-3.825
X4.15Y-3.525
X4.15Y-3.625
X4.15Y-3.725
X4.15Y-3.825
T2
X3.9Y-3.25
X4.Y-3.25
X2.875Y-3.225
X2.875Y-3.325
X2.875Y-3.425
X2.875Y-3.525
X2.875Y-3.625
X2.875Y-3.725
X2.875Y-3.825
T3
X4.5Y-3.45
X4.5Y-3.55
X4.5Y-3.65
X4.5Y-3.75
T0
M30
